<mxfile host="app.diagrams.net" modified="2023-08-24T08:02:36.050Z" agent="Mozilla/5.0 (X11; Linux x86_64; rv:109.0) Gecko/20100101 Firefox/113.0" etag="_xYX_KUpH9-2zzgpJ59c" version="21.6.8" type="device">
  <diagram name="Page-1" id="oTzLVt-jdsWbiHDTGxCp">
    <mxGraphModel dx="1434" dy="822" grid="1" gridSize="10" guides="1" tooltips="1" connect="1" arrows="1" fold="1" page="1" pageScale="1" pageWidth="850" pageHeight="1100" math="0" shadow="0">
      <root>
        <mxCell id="0" />
        <mxCell id="1" parent="0" />
        <mxCell id="FzBq4iXUX3XWTzYkqI5F-68" value="AWS Cloud" style="points=[[0,0],[0.25,0],[0.5,0],[0.75,0],[1,0],[1,0.25],[1,0.5],[1,0.75],[1,1],[0.75,1],[0.5,1],[0.25,1],[0,1],[0,0.75],[0,0.5],[0,0.25]];outlineConnect=0;gradientColor=none;html=1;whiteSpace=wrap;fontSize=12;fontStyle=0;shape=mxgraph.aws4.group;grIcon=mxgraph.aws4.group_aws_cloud_alt;strokeColor=#232F3E;fillColor=none;verticalAlign=top;align=left;spacingLeft=30;fontColor=#232F3E;dashed=0;container=1;pointerEvents=0;collapsible=0;recursiveResize=0;" vertex="1" parent="1">
          <mxGeometry x="480" y="70" width="704.5" height="410" as="geometry" />
        </mxCell>
        <mxCell id="FzBq4iXUX3XWTzYkqI5F-85" style="edgeStyle=orthogonalEdgeStyle;rounded=0;orthogonalLoop=1;jettySize=auto;html=1;" edge="1" parent="FzBq4iXUX3XWTzYkqI5F-68" source="FzBq4iXUX3XWTzYkqI5F-87" target="FzBq4iXUX3XWTzYkqI5F-91">
          <mxGeometry relative="1" as="geometry" />
        </mxCell>
        <mxCell id="FzBq4iXUX3XWTzYkqI5F-86" style="edgeStyle=orthogonalEdgeStyle;rounded=0;orthogonalLoop=1;jettySize=auto;html=1;" edge="1" parent="FzBq4iXUX3XWTzYkqI5F-68" source="FzBq4iXUX3XWTzYkqI5F-87" target="FzBq4iXUX3XWTzYkqI5F-89">
          <mxGeometry relative="1" as="geometry" />
        </mxCell>
        <mxCell id="FzBq4iXUX3XWTzYkqI5F-87" value="Lambda Function" style="outlineConnect=0;dashed=0;verticalLabelPosition=bottom;verticalAlign=top;align=center;html=1;shape=mxgraph.aws3.lambda_function;fillColor=#F58534;gradientColor=none;" vertex="1" parent="FzBq4iXUX3XWTzYkqI5F-68">
          <mxGeometry x="472.5" y="154" width="75.5" height="73" as="geometry" />
        </mxCell>
        <mxCell id="FzBq4iXUX3XWTzYkqI5F-88" style="edgeStyle=orthogonalEdgeStyle;rounded=0;orthogonalLoop=1;jettySize=auto;html=1;" edge="1" parent="FzBq4iXUX3XWTzYkqI5F-68" source="FzBq4iXUX3XWTzYkqI5F-89" target="FzBq4iXUX3XWTzYkqI5F-87">
          <mxGeometry relative="1" as="geometry" />
        </mxCell>
        <mxCell id="FzBq4iXUX3XWTzYkqI5F-89" value="&lt;div&gt;DynamoDB&lt;/div&gt;" style="outlineConnect=0;dashed=0;verticalLabelPosition=bottom;verticalAlign=top;align=center;html=1;shape=mxgraph.aws3.dynamo_db;fillColor=#2E73B8;gradientColor=none;" vertex="1" parent="FzBq4iXUX3XWTzYkqI5F-68">
          <mxGeometry x="321.75" y="149.5" width="72" height="81" as="geometry" />
        </mxCell>
        <mxCell id="FzBq4iXUX3XWTzYkqI5F-90" style="edgeStyle=orthogonalEdgeStyle;rounded=0;orthogonalLoop=1;jettySize=auto;html=1;" edge="1" parent="FzBq4iXUX3XWTzYkqI5F-68" source="FzBq4iXUX3XWTzYkqI5F-91" target="FzBq4iXUX3XWTzYkqI5F-87">
          <mxGeometry relative="1" as="geometry" />
        </mxCell>
        <mxCell id="FzBq4iXUX3XWTzYkqI5F-91" value="API Gateway" style="outlineConnect=0;dashed=0;verticalLabelPosition=bottom;verticalAlign=top;align=center;html=1;shape=mxgraph.aws3.api_gateway;fillColor=#D9A741;gradientColor=none;" vertex="1" parent="FzBq4iXUX3XWTzYkqI5F-68">
          <mxGeometry x="615.5" y="151" width="61.5" height="80" as="geometry" />
        </mxCell>
        <mxCell id="FzBq4iXUX3XWTzYkqI5F-92" value="5" style="rounded=1;whiteSpace=wrap;html=1;fillColor=#007CBD;strokeColor=none;fontColor=#FFFFFF;fontStyle=1;fontSize=22;labelBackgroundColor=none;" vertex="1" parent="FzBq4iXUX3XWTzYkqI5F-68">
          <mxGeometry x="409.25" y="130" width="40" height="38" as="geometry" />
        </mxCell>
        <mxCell id="FzBq4iXUX3XWTzYkqI5F-93" value="6" style="rounded=1;whiteSpace=wrap;html=1;fillColor=#007CBD;strokeColor=none;fontColor=#FFFFFF;fontStyle=1;fontSize=22;labelBackgroundColor=none;" vertex="1" parent="FzBq4iXUX3XWTzYkqI5F-68">
          <mxGeometry x="551.5" y="130" width="40" height="38" as="geometry" />
        </mxCell>
        <mxCell id="FzBq4iXUX3XWTzYkqI5F-94" value="7" style="rounded=1;whiteSpace=wrap;html=1;fillColor=#007CBD;strokeColor=none;fontColor=#FFFFFF;fontStyle=1;fontSize=22;labelBackgroundColor=none;" vertex="1" parent="FzBq4iXUX3XWTzYkqI5F-68">
          <mxGeometry x="682.5" y="130" width="40" height="38" as="geometry" />
        </mxCell>
        <mxCell id="FzBq4iXUX3XWTzYkqI5F-124" style="edgeStyle=orthogonalEdgeStyle;rounded=0;orthogonalLoop=1;jettySize=auto;html=1;" edge="1" parent="FzBq4iXUX3XWTzYkqI5F-68" source="FzBq4iXUX3XWTzYkqI5F-122" target="FzBq4iXUX3XWTzYkqI5F-123">
          <mxGeometry relative="1" as="geometry" />
        </mxCell>
        <mxCell id="FzBq4iXUX3XWTzYkqI5F-122" value="IoT Core" style="sketch=0;points=[[0,0,0],[0.25,0,0],[0.5,0,0],[0.75,0,0],[1,0,0],[0,1,0],[0.25,1,0],[0.5,1,0],[0.75,1,0],[1,1,0],[0,0.25,0],[0,0.5,0],[0,0.75,0],[1,0.25,0],[1,0.5,0],[1,0.75,0]];outlineConnect=0;fontColor=#232F3E;gradientColor=#60A337;gradientDirection=north;fillColor=#277116;strokeColor=#ffffff;dashed=0;verticalLabelPosition=bottom;verticalAlign=top;align=center;html=1;fontSize=12;fontStyle=0;aspect=fixed;shape=mxgraph.aws4.resourceIcon;resIcon=mxgraph.aws4.iot_core;" vertex="1" parent="FzBq4iXUX3XWTzYkqI5F-68">
          <mxGeometry x="25" y="151" width="78" height="78" as="geometry" />
        </mxCell>
        <mxCell id="FzBq4iXUX3XWTzYkqI5F-125" style="edgeStyle=orthogonalEdgeStyle;rounded=0;orthogonalLoop=1;jettySize=auto;html=1;" edge="1" parent="FzBq4iXUX3XWTzYkqI5F-68" source="FzBq4iXUX3XWTzYkqI5F-123" target="FzBq4iXUX3XWTzYkqI5F-89">
          <mxGeometry relative="1" as="geometry" />
        </mxCell>
        <mxCell id="FzBq4iXUX3XWTzYkqI5F-123" value="IoT Rule" style="outlineConnect=0;dashed=0;verticalLabelPosition=bottom;verticalAlign=top;align=center;html=1;shape=mxgraph.aws3.rule;fillColor=#5294CF;gradientColor=none;" vertex="1" parent="FzBq4iXUX3XWTzYkqI5F-68">
          <mxGeometry x="175" y="145.75" width="50.5" height="88.5" as="geometry" />
        </mxCell>
        <mxCell id="FzBq4iXUX3XWTzYkqI5F-133" value="2" style="rounded=1;whiteSpace=wrap;html=1;fillColor=#007CBD;strokeColor=none;fontColor=#FFFFFF;fontStyle=1;fontSize=22;" vertex="1" parent="FzBq4iXUX3XWTzYkqI5F-68">
          <mxGeometry x="-20" y="130" width="40" height="38" as="geometry" />
        </mxCell>
        <mxCell id="FzBq4iXUX3XWTzYkqI5F-134" value="3" style="rounded=1;whiteSpace=wrap;html=1;fillColor=#007CBD;strokeColor=none;fontColor=#FFFFFF;fontStyle=1;fontSize=22;" vertex="1" parent="FzBq4iXUX3XWTzYkqI5F-68">
          <mxGeometry x="120" y="130" width="40" height="38" as="geometry" />
        </mxCell>
        <mxCell id="FzBq4iXUX3XWTzYkqI5F-135" value="4" style="rounded=1;whiteSpace=wrap;html=1;fillColor=#007CBD;strokeColor=none;fontColor=#FFFFFF;fontStyle=1;fontSize=22;" vertex="1" parent="FzBq4iXUX3XWTzYkqI5F-68">
          <mxGeometry x="250" y="130" width="40" height="38" as="geometry" />
        </mxCell>
        <mxCell id="FzBq4iXUX3XWTzYkqI5F-95" value="" style="points=[[0,0],[0.25,0],[0.5,0],[0.75,0],[1,0],[1,0.25],[1,0.5],[1,0.75],[1,1],[0.75,1],[0.5,1],[0.25,1],[0,1],[0,0.75],[0,0.5],[0,0.25]];outlineConnect=0;gradientColor=none;html=1;whiteSpace=wrap;fontSize=12;fontStyle=0;shape=mxgraph.aws4.group;grIcon=mxgraph.aws4.group_corporate_data_center;strokeColor=#5A6C86;fillColor=none;verticalAlign=top;align=left;spacingLeft=30;fontColor=#5A6C86;dashed=0;container=1;pointerEvents=0;collapsible=0;recursiveResize=0;" vertex="1" parent="1">
          <mxGeometry x="170" y="70" width="300" height="410" as="geometry" />
        </mxCell>
        <mxCell id="FzBq4iXUX3XWTzYkqI5F-131" value="" style="rounded=1;whiteSpace=wrap;html=1;" vertex="1" parent="FzBq4iXUX3XWTzYkqI5F-95">
          <mxGeometry x="20" y="100" width="260" height="180" as="geometry" />
        </mxCell>
        <mxCell id="FzBq4iXUX3XWTzYkqI5F-96" value="ESP32-Cam" style="sketch=0;outlineConnect=0;fontColor=#232F3E;gradientColor=none;fillColor=#3F8624;strokeColor=none;dashed=0;verticalLabelPosition=bottom;verticalAlign=top;align=center;html=1;fontSize=12;fontStyle=0;aspect=fixed;pointerEvents=1;shape=mxgraph.aws4.camera;" vertex="1" parent="FzBq4iXUX3XWTzYkqI5F-95">
          <mxGeometry x="30" y="150" width="78" height="78" as="geometry" />
        </mxCell>
        <mxCell id="FzBq4iXUX3XWTzYkqI5F-97" value="1" style="rounded=1;whiteSpace=wrap;html=1;fillColor=#007CBD;strokeColor=none;fontColor=#FFFFFF;fontStyle=1;fontSize=22;" vertex="1" parent="FzBq4iXUX3XWTzYkqI5F-95">
          <mxGeometry x="120" y="130" width="40" height="38" as="geometry" />
        </mxCell>
        <mxCell id="FzBq4iXUX3XWTzYkqI5F-127" value="&lt;div&gt;AI-on-the-edge-device&lt;/div&gt;&lt;div&gt;Repo&lt;br&gt;&lt;/div&gt;" style="sketch=0;outlineConnect=0;fontColor=#232F3E;gradientColor=none;fillColor=#067F68;strokeColor=none;dashed=0;verticalLabelPosition=bottom;verticalAlign=top;align=center;html=1;fontSize=12;fontStyle=0;aspect=fixed;pointerEvents=1;shape=mxgraph.aws4.rekognition_image;" vertex="1" parent="FzBq4iXUX3XWTzYkqI5F-95">
          <mxGeometry x="170" y="150" width="77" height="78" as="geometry" />
        </mxCell>
        <mxCell id="FzBq4iXUX3XWTzYkqI5F-98" value="AI Water Meter Reading Project Architecture" style="text;html=1;resizable=0;points=[];autosize=1;align=left;verticalAlign=top;spacingTop=-4;fontSize=30;fontStyle=1" vertex="1" parent="1">
          <mxGeometry x="180" y="10" width="650" height="40" as="geometry" />
        </mxCell>
        <mxCell id="FzBq4iXUX3XWTzYkqI5F-99" value="" style="rounded=0;whiteSpace=wrap;html=1;fillColor=#EAEDED;fontSize=22;fontColor=#FFFFFF;strokeColor=none;labelBackgroundColor=none;" vertex="1" parent="1">
          <mxGeometry x="150" y="490" width="1170" height="450" as="geometry" />
        </mxCell>
        <mxCell id="FzBq4iXUX3XWTzYkqI5F-100" value="1" style="rounded=1;whiteSpace=wrap;html=1;fillColor=#007CBD;strokeColor=none;fontColor=#FFFFFF;fontStyle=1;fontSize=22;labelBackgroundColor=none;" vertex="1" parent="1">
          <mxGeometry x="168" y="502" width="40" height="38" as="geometry" />
        </mxCell>
        <mxCell id="FzBq4iXUX3XWTzYkqI5F-101" value="2" style="rounded=1;whiteSpace=wrap;html=1;fillColor=#007CBD;strokeColor=none;fontColor=#FFFFFF;fontStyle=1;fontSize=22;labelBackgroundColor=none;" vertex="1" parent="1">
          <mxGeometry x="168" y="605" width="40" height="38" as="geometry" />
        </mxCell>
        <mxCell id="FzBq4iXUX3XWTzYkqI5F-102" value="3" style="rounded=1;whiteSpace=wrap;html=1;fillColor=#007CBD;strokeColor=none;fontColor=#FFFFFF;fontStyle=1;fontSize=22;labelBackgroundColor=none;" vertex="1" parent="1">
          <mxGeometry x="168" y="706" width="40" height="38" as="geometry" />
        </mxCell>
        <mxCell id="FzBq4iXUX3XWTzYkqI5F-103" value="4" style="rounded=1;whiteSpace=wrap;html=1;fillColor=#007CBD;strokeColor=none;fontColor=#FFFFFF;fontStyle=1;fontSize=22;labelBackgroundColor=none;" vertex="1" parent="1">
          <mxGeometry x="168" y="793.5" width="40" height="38" as="geometry" />
        </mxCell>
        <mxCell id="FzBq4iXUX3XWTzYkqI5F-105" value="ESP32-Camera uses the AI-on-the-edge-device project to for configuring image and then performing image recognition on the device for reading and obtaining water image reading data." style="text;html=1;align=left;verticalAlign=top;spacingTop=-4;fontSize=14;labelBackgroundColor=none;whiteSpace=wrap;" vertex="1" parent="1">
          <mxGeometry x="219.5" y="501.5" width="449" height="78.5" as="geometry" />
        </mxCell>
        <mxCell id="FzBq4iXUX3XWTzYkqI5F-106" value="An IoT rule will be created and configured so that it triggers when a topic that matches the water meter data topic is received." style="text;html=1;align=left;verticalAlign=top;spacingTop=-4;fontSize=14;labelBackgroundColor=none;whiteSpace=wrap;" vertex="1" parent="1">
          <mxGeometry x="221" y="706" width="450" height="64" as="geometry" />
        </mxCell>
        <mxCell id="FzBq4iXUX3XWTzYkqI5F-109" value="The water meter reading will be sent to AWS IoT Core through MQTT with a relevant topic and message in JSON." style="text;html=1;align=left;verticalAlign=top;spacingTop=-4;fontSize=14;labelBackgroundColor=none;whiteSpace=wrap;" vertex="1" parent="1">
          <mxGeometry x="220" y="605" width="450" height="91" as="geometry" />
        </mxCell>
        <mxCell id="FzBq4iXUX3XWTzYkqI5F-110" value="User Interface" style="sketch=0;points=[[0,0,0],[0.25,0,0],[0.5,0,0],[0.75,0,0],[1,0,0],[0,1,0],[0.25,1,0],[0.5,1,0],[0.75,1,0],[1,1,0],[0,0.25,0],[0,0.5,0],[0,0.75,0],[1,0.25,0],[1,0.5,0],[1,0.75,0]];outlineConnect=0;fontColor=#232F3E;gradientColor=#4AB29A;gradientDirection=north;fillColor=#116D5B;strokeColor=#ffffff;dashed=0;verticalLabelPosition=bottom;verticalAlign=top;align=center;html=1;fontSize=12;fontStyle=0;aspect=fixed;shape=mxgraph.aws4.resourceIcon;resIcon=mxgraph.aws4.desktop_and_app_streaming;" vertex="1" parent="1">
          <mxGeometry x="1235.5" y="222" width="78" height="78" as="geometry" />
        </mxCell>
        <mxCell id="FzBq4iXUX3XWTzYkqI5F-111" style="edgeStyle=orthogonalEdgeStyle;rounded=0;orthogonalLoop=1;jettySize=auto;html=1;" edge="1" parent="1" source="FzBq4iXUX3XWTzYkqI5F-91" target="FzBq4iXUX3XWTzYkqI5F-110">
          <mxGeometry relative="1" as="geometry" />
        </mxCell>
        <mxCell id="FzBq4iXUX3XWTzYkqI5F-112" value="The IoT Rule is configured to extract relevant information from the message payload and then create a new entry in DynamoDB." style="text;html=1;align=left;verticalAlign=top;spacingTop=-4;fontSize=14;labelBackgroundColor=none;whiteSpace=wrap;" vertex="1" parent="1">
          <mxGeometry x="218.5" y="793.5" width="450" height="94.5" as="geometry" />
        </mxCell>
        <mxCell id="FzBq4iXUX3XWTzYkqI5F-115" value="5" style="rounded=1;whiteSpace=wrap;html=1;fillColor=#007CBD;strokeColor=none;fontColor=#FFFFFF;fontStyle=1;fontSize=22;labelBackgroundColor=none;" vertex="1" parent="1">
          <mxGeometry x="730" y="502" width="40" height="38" as="geometry" />
        </mxCell>
        <mxCell id="FzBq4iXUX3XWTzYkqI5F-116" value="To read the DynamoDB, a Lambda function can be used to connect and read the table values." style="text;html=1;align=left;verticalAlign=top;spacingTop=-4;fontSize=14;labelBackgroundColor=none;whiteSpace=wrap;" vertex="1" parent="1">
          <mxGeometry x="792" y="502" width="449" height="93" as="geometry" />
        </mxCell>
        <mxCell id="FzBq4iXUX3XWTzYkqI5F-117" value="6" style="rounded=1;whiteSpace=wrap;html=1;fillColor=#007CBD;strokeColor=none;fontColor=#FFFFFF;fontStyle=1;fontSize=22;labelBackgroundColor=none;" vertex="1" parent="1">
          <mxGeometry x="730" y="586.5" width="40" height="38" as="geometry" />
        </mxCell>
        <mxCell id="FzBq4iXUX3XWTzYkqI5F-119" value="An API Gateway can be used to call the Lambda function that reads the DynamoDB table entries." style="text;html=1;align=left;verticalAlign=top;spacingTop=-4;fontSize=14;labelBackgroundColor=none;whiteSpace=wrap;" vertex="1" parent="1">
          <mxGeometry x="792" y="586.5" width="449" height="93" as="geometry" />
        </mxCell>
        <mxCell id="FzBq4iXUX3XWTzYkqI5F-120" value="7" style="rounded=1;whiteSpace=wrap;html=1;fillColor=#007CBD;strokeColor=none;fontColor=#FFFFFF;fontStyle=1;fontSize=22;labelBackgroundColor=none;" vertex="1" parent="1">
          <mxGeometry x="730" y="666.5" width="40" height="38" as="geometry" />
        </mxCell>
        <mxCell id="FzBq4iXUX3XWTzYkqI5F-121" value="The water meter reading data inside DynamoDB can be shown on a GUI  such as a website or mobile app using the API configured." style="text;html=1;align=left;verticalAlign=top;spacingTop=-4;fontSize=14;labelBackgroundColor=none;whiteSpace=wrap;" vertex="1" parent="1">
          <mxGeometry x="792" y="666.5" width="468" height="93" as="geometry" />
        </mxCell>
        <mxCell id="FzBq4iXUX3XWTzYkqI5F-132" style="edgeStyle=orthogonalEdgeStyle;rounded=0;orthogonalLoop=1;jettySize=auto;html=1;" edge="1" parent="1" source="FzBq4iXUX3XWTzYkqI5F-131" target="FzBq4iXUX3XWTzYkqI5F-122">
          <mxGeometry relative="1" as="geometry" />
        </mxCell>
      </root>
    </mxGraphModel>
  </diagram>
</mxfile>
